<?xml version="1.0" standalone="no"?><!DOCTYPE svg PUBLIC "-//W3C//DTD SVG 1.1//EN" "http://www.w3.org/Graphics/SVG/1.1/DTD/svg11.dtd"><svg t="1655198315418" class="icon" viewBox="0 0 1024 1024" version="1.1" xmlns="http://www.w3.org/2000/svg" p-id="7009" xmlns:xlink="http://www.w3.org/1999/xlink" width="200" height="200"><defs><style type="text/css">@font-face { font-family: feedback-iconfont; src: url("//at.alicdn.com/t/font_1031158_u69w8yhxdu.woff2?t=1630033759944") format("woff2"), url("//at.alicdn.com/t/font_1031158_u69w8yhxdu.woff?t=1630033759944") format("woff"), url("//at.alicdn.com/t/font_1031158_u69w8yhxdu.ttf?t=1630033759944") format("truetype"); }
</style></defs><path d="M512.5 929.5c-9.8 0-19.6-3.4-27.5-10.2l-138.4-119c-21.2-8.4-41.8-18.5-61.3-30.1-115-68.6-183.7-183.3-183.7-306.9 0-50.2 11.1-98.8 32.9-144.6 20.9-43.9 50.8-83.3 88.8-117.1 37.8-33.5 81.7-59.8 130.5-78.2 50.4-18.8 103.9-28.4 159-28.4 55.1 0 108.5 9.6 158.9 28.5 48.8 18.3 92.8 44.6 130.5 78.2 38 33.8 67.9 73.1 88.8 117.1 21.8 45.8 32.9 94.4 32.9 144.6 0 76.5-25.9 149.9-74.9 212.1-46.2 58.7-109.7 103.6-183.8 130.1l-124.3 113c-8 7.2-18.2 10.9-28.4 10.9z m0.3-776.5c-194.7 0-353.1 139.2-353.1 310.3 0 103 58.1 199.1 155.4 257.1 18.1 10.8 37.3 20 57.1 27.6l4.8 1.8 135.4 116.4L635 754.6l5.7-1.9c134.7-46.1 225.2-162.3 225.2-289.3 0-171.2-158.4-310.4-353.1-310.4z" fill="#0086f6" p-id="7010"></path><path d="M512.8 641.8c-47 0-91.4-16.4-125-46.2-34.5-30.7-53.5-71.7-53.5-115.6 0-16 13-29 29-29s29 13 29 29c0 57.2 54 103.7 120.5 103.7 66.4 0 120.5-46.5 120.5-103.7 0-16 13-29 29-29s29 13 29 29c0 43.9-19 84.9-53.5 115.6-33.6 29.8-78 46.2-125 46.2z" fill="#0086f6" p-id="7011"></path></svg>