<?xml version="1.0" standalone="no"?><!DOCTYPE svg PUBLIC "-//W3C//DTD SVG 1.1//EN" "http://www.w3.org/Graphics/SVG/1.1/DTD/svg11.dtd"><svg t="1653902516864" class="icon" viewBox="0 0 1038 1024" version="1.1" xmlns="http://www.w3.org/2000/svg" p-id="11919" xmlns:xlink="http://www.w3.org/1999/xlink" width="202.734375" height="200"><defs><style type="text/css">@font-face { font-family: feedback-iconfont; src: url("//at.alicdn.com/t/font_1031158_u69w8yhxdu.woff2?t=1630033759944") format("woff2"), url("//at.alicdn.com/t/font_1031158_u69w8yhxdu.woff?t=1630033759944") format("woff"), url("//at.alicdn.com/t/font_1031158_u69w8yhxdu.ttf?t=1630033759944") format("truetype"); }
</style></defs><path d="M863.418182 235.287273L466.618182 6.283636a46.545455 46.545455 0 0 0-46.545455 0l-395.636363 229.003637a46.545455 46.545455 0 0 0-23.272728 40.261818v458.472727a46.545455 46.545455 0 0 0 23.272728 40.261818l395.636363 229.003637a46.545455 46.545455 0 0 0 46.545455 0l395.636363-229.003637a46.545455 46.545455 0 0 0 23.272728-40.261818v-458.472727a46.545455 46.545455 0 0 0-22.109091-40.261818zM443.345455 471.272727l-160.814546-93.090909 356.072727-205.730909 160.814546 93.090909z m0-411.229091l137.076363 79.127273-356.072727 205.498182-137.076364-79.127273z m-385.163637 256l356.072727 205.498182v411.229091L58.181818 727.272727z m414.254546 616.727273V521.541818l356.072727-205.498182v411.229091zM128.232727 654.661818a36.538182 36.538182 0 0 1 16.523637 28.392727v37.934546c0 10.705455-7.447273 14.894545-16.523637 9.541818l-33.978182-19.083636a36.072727 36.072727 0 0 1-16.523636-28.625455v-38.4c0-10.24 7.447273-14.661818 16.523636-9.309091z" p-id="11920"></path></svg>