<?xml version="1.0" standalone="no"?><!DOCTYPE svg PUBLIC "-//W3C//DTD SVG 1.1//EN" "http://www.w3.org/Graphics/SVG/1.1/DTD/svg11.dtd"><svg t="1653902571452" class="icon" viewBox="0 0 1038 1024" version="1.1" xmlns="http://www.w3.org/2000/svg" p-id="1083" xmlns:xlink="http://www.w3.org/1999/xlink" width="202.734375" height="200"><defs><style type="text/css">@font-face { font-family: feedback-iconfont; src: url("//at.alicdn.com/t/font_1031158_u69w8yhxdu.woff2?t=1630033759944") format("woff2"), url("//at.alicdn.com/t/font_1031158_u69w8yhxdu.woff?t=1630033759944") format("woff"), url("//at.alicdn.com/t/font_1031158_u69w8yhxdu.ttf?t=1630033759944") format("truetype"); }
</style></defs><path d="M863.418182 235.287273L466.618182 6.283636a46.545455 46.545455 0 0 0-46.545455 0l-395.636363 229.003637a46.545455 46.545455 0 0 0-23.272728 40.261818v458.472727a46.545455 46.545455 0 0 0 23.272728 40.261818l395.636363 229.003637a46.545455 46.545455 0 0 0 46.545455 0l395.636363-229.003637a46.545455 46.545455 0 0 0 23.272728-40.261818v-458.472727a46.545455 46.545455 0 0 0-22.109091-40.261818zM144.523636 684.683636c0 10.705455-7.447273 14.894545-16.523636 9.541819l-33.745455-19.083637a36.072727 36.072727 0 0 1-16.523636-28.625454v-37.934546c0-10.472727 7.447273-14.661818 16.523636-9.309091l33.047273 19.083637a36.538182 36.538182 0 0 1 16.523637 28.392727zM886.690909 282.996364l-414.254545 202.24v513.861818l-8.843637 5.12a40.96 40.96 0 0 1-40.494545 0l-8.843637-5.12V485.236364L7.447273 250.414545l9.541818-10.705454c13.498182-8.610909 19.781818-12.101818 32.116364-19.316364l11.403636-6.516363 162.909091 94.487272 382.836363-220.858181 58.181819 33.745454-381.905455 220.625455 160.814546 93.090909L857.6 232.727273l8.843636 5.12a40.261818 40.261818 0 0 1 20.247273 34.909091z" fill="#0086f6" p-id="1084"></path></svg>