<?xml version="1.0" standalone="no"?><!DOCTYPE svg PUBLIC "-//W3C//DTD SVG 1.1//EN" "http://www.w3.org/Graphics/SVG/1.1/DTD/svg11.dtd"><svg t="1653900824395" class="icon" viewBox="0 0 1024 1024" version="1.1" xmlns="http://www.w3.org/2000/svg" p-id="993" xmlns:xlink="http://www.w3.org/1999/xlink" width="200" height="200"><defs><style type="text/css">@font-face { font-family: feedback-iconfont; src: url("//at.alicdn.com/t/font_1031158_u69w8yhxdu.woff2?t=1630033759944") format("woff2"), url("//at.alicdn.com/t/font_1031158_u69w8yhxdu.woff?t=1630033759944") format("woff"), url("//at.alicdn.com/t/font_1031158_u69w8yhxdu.ttf?t=1630033759944") format("truetype"); }
</style></defs><path d="M617.45152 490.1376c-36.84352 0-66.72384 29.93664-66.72384 66.90304v66.91328c0 36.9664 29.88032 66.90304 66.72384 66.90304h356.43904V490.1376h-356.43904z m295.81824 140.09856h-295.81824c-3.36384 0-6.10304-2.816-6.10304-6.28224v-66.91328c0-3.46112 2.7392-6.28736 6.10304-6.28736h295.81824v79.48288z" fill="#0086f6" p-id="994"></path><path d="M617.45152 456.64768h289.7152V255.20128H133.57568c-27.67872 0-50.10432-22.42048-50.10432-50.16576 0-27.67872 22.42048-50.16064 50.10432-50.16064H393.2672l78.39232-32.74752H150.25664c-55.29088 0-100.14208 44.90752-100.14208 100.3264V858.1632c0 55.41888 44.8512 100.38272 100.14208 100.38272h656.75264c55.30624 0 100.15744-44.96384 100.15744-100.38272v-133.82656h-289.7152c-55.23968 0-100.08576-44.96384-100.08576-100.38272v-66.90816c0-55.424 44.84608-100.39296 100.08576-100.39808z m0 328.31488h229.09952v73.20064c0 21.91872-17.73568 39.76192-39.54176 39.76192H150.25664c-21.79584 0-39.52128-17.83808-39.52128-39.76192V313.45152c7.36768 1.55136 15.01184 2.36544 22.84032 2.36544h712.97536V396.032h-229.09952c-88.61696 0.00512-160.70656 72.23808-160.70656 161.01376v66.90816c0 88.7808 72.0896 161.00864 160.70656 161.00864z" fill="#0086f6" p-id="995"></path><path d="M210.688 352.82944H143.96416v66.90304h33.36192v-33.42336h33.36192v-33.47968zM210.688 460.09344H143.96416v66.91328h34.76992l-1.408-33.49504 33.36192 0.67584v-34.09408zM210.688 567.36256H143.96416v66.90304h34.03776l-0.67584-33.42336h33.36192v-33.47968zM210.688 674.62656H143.96416v66.89792h34.03776l-0.67584-33.47968 33.36192 0.73216v-34.1504zM210.688 781.88032H143.96416v66.91328h33.36192v-33.4848h33.36192v-33.42848zM709.27872 55.20896L317.12768 220.37504h467.24608l-75.09504-165.16608z m-92.04224 104.54528l61.25568-25.79968 11.73504 25.79968h-72.99072zM772.52608 122.12224h34.4832c29.21472 0 55.30624 12.76928 73.5744 32.74752h-92.11392l-15.94368-32.74752z" fill="#0086f6" p-id="996"></path></svg>