<?xml version="1.0" standalone="no"?><!DOCTYPE svg PUBLIC "-//W3C//DTD SVG 1.1//EN" "http://www.w3.org/Graphics/SVG/1.1/DTD/svg11.dtd"><svg t="1653960061564" class="icon" viewBox="0 0 1024 1024" version="1.1" xmlns="http://www.w3.org/2000/svg" p-id="1476" xmlns:xlink="http://www.w3.org/1999/xlink" width="200" height="200"><defs><style type="text/css">@font-face { font-family: feedback-iconfont; src: url("//at.alicdn.com/t/font_1031158_u69w8yhxdu.woff2?t=1630033759944") format("woff2"), url("//at.alicdn.com/t/font_1031158_u69w8yhxdu.woff?t=1630033759944") format("woff"), url("//at.alicdn.com/t/font_1031158_u69w8yhxdu.ttf?t=1630033759944") format("truetype"); }
</style></defs><path d="M898.28 781.45h-33.41c-7.78-64.96-66.74-111.33-131.71-103.54-54.27 6.5-97.05 49.28-103.54 103.54H460.74c-7.78-64.96-66.74-111.33-131.71-103.54-54.27 6.5-97.05 49.28-103.54 103.54h-67.22c-18.67-0.12-33.73-15.36-33.61-34.02V237.84c-0.12-18.67 14.93-33.91 33.61-34.02h471.56c18.67 0.12 33.73 15.36 33.61 34.02v101.87h117.41c24.58 0 35.09 15.34 50.41 34.02L906.25 509c14.2 20.36 23.02 44 25.62 68.7v169.93a34.05 34.05 0 0 1-9.02 23.32 33.162 33.162 0 0 1-23.74 9.86l-0.83 0.64z m-35.71-232.74L792 415.75s-7.55-7.99-12.82-7.99h-82.13V577.7h178.76a62.848 62.848 0 0 0-13.02-28.77l-0.22-0.22zM342.91 713.6c46.4 0.01 84.01 37.63 84.01 84.03-0.02 46.4-37.63 84.01-84.03 84.01-45.66-0.01-82.95-36.49-83.98-82.13 0-46.4 37.61-84.01 84.01-84.01l-0.01-1.9z m404.56 0c46.4 0.01 84.01 37.63 84.01 84.03-0.02 46.4-37.63 84.01-84.03 84.01-45.66-0.01-82.95-36.49-83.98-82.13 0-46.4 37.61-84.01 84.01-84.01l-0.01-1.9z" fill="#0086f6" p-id="1477"></path></svg>