<?xml version="1.0" standalone="no"?><!DOCTYPE svg PUBLIC "-//W3C//DTD SVG 1.1//EN" "http://www.w3.org/Graphics/SVG/1.1/DTD/svg11.dtd"><svg t="1653900835031" class="icon" viewBox="0 0 1024 1024" version="1.1" xmlns="http://www.w3.org/2000/svg" p-id="1144" xmlns:xlink="http://www.w3.org/1999/xlink" width="200" height="200"><defs><style type="text/css">@font-face { font-family: feedback-iconfont; src: url("//at.alicdn.com/t/font_1031158_u69w8yhxdu.woff2?t=1630033759944") format("woff2"), url("//at.alicdn.com/t/font_1031158_u69w8yhxdu.woff?t=1630033759944") format("woff"), url("//at.alicdn.com/t/font_1031158_u69w8yhxdu.ttf?t=1630033759944") format("truetype"); }
</style></defs><path d="M617.452 680.622c-31.145 0-56.48-25.42-56.48-56.663v-66.913c0-31.248 25.335-56.663 56.48-56.663H963.65v180.244h-346.2z m0-140.114c-9.012 0-16.338 7.414-16.338 16.533v66.913c0 9.108 7.331 16.522 16.338 16.522H923.51v-99.963H617.452z" p-id="1145"></path><path d="M150.257 948.306c-49.572 0-89.902-40.438-89.902-90.143v-635.71c0-49.673 24.97-90.086 74.542-90.086h285.68l-29.363 32.748H143.816c-33.275 0-50.105 16.855-50.105 50.16 0 33.306 16.84 50.166 50.105 50.166h753.116v180.967h-279.48c-60.836 0.005-110.326 49.638-110.326 110.638v66.908c0 61 49.49 110.623 110.326 110.623h279.48v123.581c0 49.705-40.34 90.143-89.923 90.143H150.257z m-49.762-90.148c0 27.576 22.324 50.007 49.762 50.007h656.752c27.449 0 49.782-22.43 49.782-50.007v-83.44h-239.34c-82.964 0-150.466-67.636-150.466-150.764v-66.908c0-83.134 67.502-150.769 150.467-150.774H856.79V305.577H133.576c-6.99 0-13.968-0.722-20.731-2.145l-12.35-2.596v557.322z" p-id="1146"></path><path d="M210.688 352.83h-66.724v66.902h33.362V386.31h33.362z m0 107.263h-66.724v66.919h34.77l-1.408-33.5 33.362 0.676z m0 107.27h-66.724v66.903h34.038l-0.676-33.424h33.362z m0 107.269h-66.724v66.892h34.038l-0.676-33.48 33.362 0.738z m0 107.248h-66.724v66.908h33.362v-33.48h33.362zM709.278 55.21l-392.15 165.166h467.246L709.279 55.209z m-18.503 48.548l34.565 75.955H510.45l180.326-75.955z m81.751 18.365h34.483c29.215 0 55.307 12.77 73.575 32.748H788.47l-15.944-32.748z" p-id="1147"></path></svg>