<?xml version="1.0" standalone="no"?><!DOCTYPE svg PUBLIC "-//W3C//DTD SVG 1.1//EN" "http://www.w3.org/Graphics/SVG/1.1/DTD/svg11.dtd"><svg t="1653960430304" class="icon" viewBox="0 0 1024 1024" version="1.1" xmlns="http://www.w3.org/2000/svg" p-id="1423" xmlns:xlink="http://www.w3.org/1999/xlink" width="200" height="200"><defs><style type="text/css">@font-face { font-family: feedback-iconfont; src: url("//at.alicdn.com/t/font_1031158_u69w8yhxdu.woff2?t=1630033759944") format("woff2"), url("//at.alicdn.com/t/font_1031158_u69w8yhxdu.woff?t=1630033759944") format("woff"), url("//at.alicdn.com/t/font_1031158_u69w8yhxdu.ttf?t=1630033759944") format("truetype"); }
</style></defs><path d="M934.574974 577.252723c2.516967 6.893499 4.284373 15.655779 5.218252 26.005244 0.838648 10.346393-3.44675 20.416308-13.04051 30.017236-4.288469 4.19631-8.196014 8.391596-11.734923 12.212102-3.356638 4.01404-6.429632 7.083961-9.133989 9.782174-3.353566 3.453917-6.425536 5.971908-9.124773 7.831474L786.272585 553.858653c5.309387-4.381652 11.078545-9.698207 17.514321-15.657827 6.516671-5.965764 11.926409-10.722197 16.303965-14.354288 10.240922-9.513889 21.606184-13.61804 33.715887-12.216198 12.204934 1.312755 22.086435 4.01404 29.911765 8.39262 8.660905 4.379604 17.880909 11.836298 27.942633 22.741789C921.723903 553.57296 929.356722 565.036526 934.574974 577.252723L934.574974 577.252723 934.574974 577.252723zM478.468431 862.111315l16.775-16.960342 32.509627-32.625338c13.043582-12.961662 27.391726-27.501293 42.946131-43.531853 15.556452-16.029536 31.205064-31.879873 46.855723-47.541797 37.172876-37.285515 79.283431-78.851307 126.051091-124.901151l109.17574 109.241276-126.135059 126.212882-46.763564 46.795308-42.945107 42.973778c-12.110727 12.208006-22.17245 22.37008-30.458575 31.319751-8.206254 8.575914-12.769152 13.326203-13.6078 14.165874-4.376532 3.449822-9.124773 7.081913-14.249842 11.091857-5.311435 3.82153-10.343321 7.086009-15.650659 9.698207-5.218252 2.698213-13.23302 5.873605-24.036112 9.780126-10.994578 3.921881-22.080291 7.740339-33.259187 11.003794-11.270031 3.636188-22.080291 6.716349-32.514747 9.136037-10.341273 2.698213-18.166602 4.568018-23.38383 5.310411-10.334105 1.678319-17.325907 0.377852-20.864815-3.819482-3.447774-4.381652-4.288469-11.841418-2.61015-22.181666 0.839672-5.126093 2.61015-12.957566 5.217228-23.303959 2.609126-10.533783 5.685191-21.165868 9.132965-31.881921 3.447774-10.901395 6.710205-21.157676 9.686943-30.57531 3.169248-9.692063 5.59508-16.033632 7.171-19.669819C462.81982 880.658841 469.711271 870.693373 478.468431 862.111315L478.468431 862.111315 478.468431 862.111315zM848.7974 82.040012C848.7974 36.723345 805.480585 0 760.209998 0L180.618482 0C135.346871 0 92.03108 36.723345 92.03108 82.040012l0 785.96334c0 45.307451 43.315791 88.661129 88.587402 88.661129l119.014234 0 549.165708-549.491337L848.798424 82.040012zM452.814416 645.705415 242.095755 645.705415l0-54.255073 210.718661 0L452.814416 645.705415zM452.814416 522.656661 242.095755 522.656661l0-54.257121 210.718661 0L452.814416 522.656661zM698.732725 399.601764 242.095755 399.601764l0-54.257121 456.63697 0L698.732725 399.601764zM698.732725 276.545843 242.095755 276.545843l0-54.263265 456.63697 0L698.732725 276.545843z" fill="#0086f6" p-id="1424"></path></svg>