<?xml version="1.0" standalone="no"?><!DOCTYPE svg PUBLIC "-//W3C//DTD SVG 1.1//EN" "http://www.w3.org/Graphics/SVG/1.1/DTD/svg11.dtd"><svg t="1655048646493" class="icon" viewBox="0 0 1024 1024" version="1.1" xmlns="http://www.w3.org/2000/svg" p-id="45705" xmlns:xlink="http://www.w3.org/1999/xlink" width="200" height="200"><defs><style type="text/css">@font-face { font-family: feedback-iconfont; src: url("//at.alicdn.com/t/font_1031158_u69w8yhxdu.woff2?t=1630033759944") format("woff2"), url("//at.alicdn.com/t/font_1031158_u69w8yhxdu.woff?t=1630033759944") format("woff"), url("//at.alicdn.com/t/font_1031158_u69w8yhxdu.ttf?t=1630033759944") format("truetype"); }
</style></defs><path d="M672.0032 286.976C671.4592 199.072 600.0352 128 512.0032 128 423.6512 128 352.0032 199.648 352.0032 288L352.0032 448 672.0032 448 672.0032 288 672.0032 286.976ZM768.0032 448 831.8432 448C867.2672 448 896.0032 476.576 896.0032 511.84L896.0032 928.16C896.0032 963.424 867.2992 992 831.8432 992L192.1632 992C156.7392 992 128.0032 963.456 128.0032 928.16L128.0032 511.84C128.0032 476.608 156.7072 448 192.1632 448L256.0032 448 256.0032 288C256.8992 145.728 371.1712 32 512.0032 32 653.3792 32 768.0032 146.624 768.0032 288L768.0032 448Z" p-id="45706" fill="#ffffff"></path></svg>